<svg xmlns="http://www.w3.org/2000/svg" width="20" height="15" viewBox="0 0 20 15">
  <path fill="#FFF" d="M19.2116802,8.19866335 L13.3633757,14.0469678 C13.1803564,14.2314942 12.9312226,14.3352876 12.6713264,14.3352876 C12.4114301,14.3352876 12.1622964,14.2314942 11.979277,14.0469678 C11.7947507,13.8639485 11.6909572,13.6148147 11.6909572,13.3549185 C11.6909572,13.0950222 11.7947507,12.8458885 11.979277,12.6628691 L16.1705619,8.4813314 L0.974717414,8.4813314 C0.436395851,8.4813314 -3.41060513e-13,8.04493555 -3.41060513e-13,7.50661399 C-3.41060513e-13,6.96829243 0.436395851,6.53189658 0.974717414,6.53189658 L16.1705619,6.53189658 L11.979277,2.35035887 C11.7320316,2.10311345 11.6354713,1.74274539 11.7259694,1.40500186 C11.8164675,1.06725833 12.0802752,0.803450604 12.4180187,0.712952497 C12.7557623,0.622454391 13.1161303,0.719014721 13.3633757,0.966260145 L19.2116802,6.81456463 C19.3962066,6.997584 19.5,7.24671774 19.5,7.50661399 C19.5,7.76651024 19.3962066,8.01564398 19.2116802,8.19866335 Z"/>
</svg>
